# xmcd
#
# Track frame offsets:
#  183
#  20360
#  41090
#  55148
#  68315
#  82803
#  113258
#  131288
#  150218
#  170515
#  188578
#  202158
#  229400
#  248503
#
# Disc length: 3504 seconds
#
# Revision: 0
# Processed by: cddbd v1.4PL0 Copyright (c) Steve Scherf et al.
# Submitted via: AltoMP3_Maker 3.0
#
DISCID=9d0dae0e
DTITLE=amunda - civilised world
DYEAR=1900
DGENRE=
TTITLE0=Roll on the Wind
TTITLE1=Civilised World
TTITLE2=Look Around
TTITLE3=Ain't Right to Me
TTITLE4=Heartbeat
TTITLE5=Don't Look Back
TTITLE6=Soldier
TTITLE7=Feel it
TTITLE8=Jam in B Minor
TTITLE9=Living on a Dream
TTITLE10=Kids Inside
TTITLE11=Take
TTITLE12=Is It Real?
TTITLE13=How Could I Know
EXTD=
EXTT0=
EXTT1=
EXTT2=
EXTT3=
EXTT4=
EXTT5=
EXTT6=
EXTT7=
EXTT8=
EXTT9=
EXTT10=
EXTT11=
EXTT12=
EXTT13=
PLAYORDER=
